<?xml version="1.0" encoding="UTF-8" standalone="no"?>
<!-- Created with Inkscape (http://www.inkscape.org/) -->

<svg
   width="4000"
   height="1000"
   viewBox="0 0 1058.3332 264.58333"
   version="1.1"
   id="svg1"
   xml:space="preserve"
   inkscape:version="1.3.2 (091e20e, 2023-11-25, custom)"
   sodipodi:docname="sltm full logo-background.svg"
   inkscape:export-filename="sltm full logo-background.png"
   inkscape:export-xdpi="96"
   inkscape:export-ydpi="96"
   xmlns:inkscape="http://www.inkscape.org/namespaces/inkscape"
   xmlns:sodipodi="http://sodipodi.sourceforge.net/DTD/sodipodi-0.dtd"
   xmlns="http://www.w3.org/2000/svg"
   xmlns:svg="http://www.w3.org/2000/svg"><sodipodi:namedview
     id="namedview1"
     pagecolor="#ffffff"
     bordercolor="#000000"
     borderopacity="0.25"
     inkscape:showpageshadow="2"
     inkscape:pageopacity="0.0"
     inkscape:pagecheckerboard="0"
     inkscape:deskcolor="#d1d1d1"
     inkscape:document-units="px"
     inkscape:zoom="0.35811417"
     inkscape:cx="2129.2092"
     inkscape:cy="450.97349"
     inkscape:window-width="2560"
     inkscape:window-height="1351"
     inkscape:window-x="1911"
     inkscape:window-y="-6"
     inkscape:window-maximized="1"
     inkscape:current-layer="layer1" /><defs
     id="defs1"><inkscape:path-effect
       effect="fillet_chamfer"
       id="path-effect8"
       is_visible="true"
       lpeversion="1"
       nodesatellites_param="F,0,0,1,0,3.72401,0,1 @ F,0,0,1,0,3.72401,0,1 @ F,0,0,1,0,3.72401,0,1 @ F,0,0,1,0,3.72401,0,1 | F,0,0,1,0,3.72401,0,1 @ F,0,0,1,0,3.72401,0,1 @ F,0,0,1,0,3.72401,0,1 @ F,0,0,1,0,3.72401,0,1 | F,0,0,1,0,2.9581922,0,1 @ F,0,0,1,0,3.7900442,0,1 @ F,0,0,1,0,3.7900442,0,1"
       radius="0"
       unit="px"
       method="auto"
       mode="F"
       chamfer_steps="1"
       flexible="false"
       use_knot_distance="true"
       apply_no_radius="true"
       apply_with_radius="true"
       only_selected="false"
       hide_knots="false" /><rect
       x="1291.3419"
       y="489.68317"
       width="1863.9553"
       height="510.31683"
       id="rect2" /><rect
       x="1082.0417"
       y="138.21703"
       width="2282.5554"
       height="658.74664"
       id="rect1" /><inkscape:path-effect
       effect="fillet_chamfer"
       id="path-effect95"
       is_visible="true"
       lpeversion="1"
       nodesatellites_param="F,0,0,1,0,3.72401,0,1 @ F,0,0,1,0,3.72401,0,1 @ F,0,0,1,0,3.72401,0,1 @ F,0,0,1,0,3.72401,0,1 | F,0,0,1,0,3.72401,0,1 @ F,0,0,1,0,3.72401,0,1 @ F,0,0,1,0,3.72401,0,1 @ F,0,0,1,0,3.72401,0,1 | F,0,0,1,0,2.9581922,0,1 @ F,0,0,1,0,3.7900442,0,1 @ F,0,0,1,0,3.7900442,0,1"
       radius="0"
       unit="px"
       method="auto"
       mode="F"
       chamfer_steps="1"
       flexible="false"
       use_knot_distance="true"
       apply_no_radius="true"
       apply_with_radius="true"
       only_selected="false"
       hide_knots="false" /><inkscape:path-effect
       effect="mirror_symmetry"
       start_point="102.03131,-0.36668812"
       end_point="102.03131,281.43263"
       center_point="102.03131,140.53297"
       id="path-effect93"
       is_visible="true"
       lpeversion="1.2"
       lpesatellites=""
       mode="vertical"
       discard_orig_path="false"
       fuse_paths="false"
       oposite_fuse="false"
       split_items="false"
       split_open="false"
       link_styles="false" /><inkscape:path-effect
       effect="fillet_chamfer"
       id="path-effect91"
       is_visible="true"
       lpeversion="1"
       nodesatellites_param="F,0,1,1,0,3.2308885,0,1 @ F,0,0,1,0,3.2308885,0,1 @ F,0,1,1,0,3.2308885,0,1"
       radius="0"
       unit="px"
       method="auto"
       mode="F"
       chamfer_steps="1"
       flexible="false"
       use_knot_distance="true"
       apply_no_radius="true"
       apply_with_radius="true"
       only_selected="false"
       hide_knots="false" /><inkscape:path-effect
       effect="mirror_symmetry"
       start_point="33.5933,135.46666"
       end_point="237.34003,135.46666"
       center_point="135.46666,135.46666"
       id="path-effect89"
       is_visible="true"
       lpeversion="1.2"
       lpesatellites=""
       mode="horizontal"
       discard_orig_path="false"
       fuse_paths="false"
       oposite_fuse="false"
       split_items="false"
       split_open="false"
       link_styles="false" /><inkscape:path-effect
       effect="fillet_chamfer"
       id="path-effect87"
       is_visible="true"
       lpeversion="1"
       nodesatellites_param="F,0,1,1,0,2.800523,0,1 @ F,0,1,1,0,2.800523,0,1 @ F,0,1,1,0,2.800523,0,1 @ F,0,0,1,0,2.800523,0,1"
       radius="0"
       unit="px"
       method="auto"
       mode="F"
       chamfer_steps="1"
       flexible="false"
       use_knot_distance="true"
       apply_no_radius="true"
       apply_with_radius="true"
       only_selected="false"
       hide_knots="false" /><inkscape:path-effect
       effect="fillet_chamfer"
       id="path-effect83"
       is_visible="true"
       lpeversion="1"
       nodesatellites_param="F,0,0,1,0,3.72401,0,1 @ F,0,0,1,0,3.72401,0,1 @ F,0,0,1,0,3.72401,0,1 @ F,0,0,1,0,3.72401,0,1 | F,0,0,1,0,3.72401,0,1 @ F,0,0,1,0,3.72401,0,1 @ F,0,0,1,0,3.72401,0,1 @ F,0,0,1,0,3.72401,0,1 | F,0,0,1,0,2.6383405,0,1 @ F,0,0,1,0,2.6383405,0,1 @ F,0,0,1,0,2.6465034,0,1 @ F,0,0,1,0,2.6465034,0,1 | F,0,0,1,0,2.6383405,0,1 @ F,0,0,1,0,2.6383405,0,1 @ F,0,0,1,0,2.6465034,0,1 @ F,0,0,1,0,2.6465034,0,1 | F,0,0,1,0,2.9581922,0,1 @ F,0,0,1,0,3.7900442,0,1 @ F,0,0,1,0,3.7900442,0,1"
       radius="0"
       unit="px"
       method="auto"
       mode="F"
       chamfer_steps="1"
       flexible="false"
       use_knot_distance="true"
       apply_no_radius="true"
       apply_with_radius="true"
       only_selected="false"
       hide_knots="false" /><inkscape:path-effect
       effect="mirror_symmetry"
       start_point="102.03131,-0.36668812"
       end_point="102.03131,281.43263"
       center_point="102.03131,140.53297"
       id="path-effect81"
       is_visible="true"
       lpeversion="1.2"
       lpesatellites=""
       mode="vertical"
       discard_orig_path="false"
       fuse_paths="false"
       oposite_fuse="false"
       split_items="false"
       split_open="false"
       link_styles="false" /><inkscape:path-effect
       effect="fillet_chamfer"
       id="path-effect79"
       is_visible="true"
       lpeversion="1"
       nodesatellites_param="F,0,1,1,0,3.2308885,0,1 @ F,0,0,1,0,3.2308885,0,1 @ F,0,1,1,0,3.2308885,0,1"
       radius="0"
       unit="px"
       method="auto"
       mode="F"
       chamfer_steps="1"
       flexible="false"
       use_knot_distance="true"
       apply_no_radius="true"
       apply_with_radius="true"
       only_selected="false"
       hide_knots="false" /><inkscape:path-effect
       effect="mirror_symmetry"
       start_point="33.5933,135.46666"
       end_point="237.34003,135.46666"
       center_point="135.46666,135.46666"
       id="path-effect77"
       is_visible="true"
       lpeversion="1.2"
       lpesatellites=""
       mode="horizontal"
       discard_orig_path="false"
       fuse_paths="false"
       oposite_fuse="false"
       split_items="false"
       split_open="false"
       link_styles="false" /><inkscape:path-effect
       effect="fillet_chamfer"
       id="path-effect75"
       is_visible="true"
       lpeversion="1"
       nodesatellites_param="F,0,1,1,0,2.800523,0,1 @ F,0,1,1,0,2.800523,0,1 @ F,0,1,1,0,2.800523,0,1 @ F,0,0,1,0,2.800523,0,1"
       radius="0"
       unit="px"
       method="auto"
       mode="F"
       chamfer_steps="1"
       flexible="false"
       use_knot_distance="true"
       apply_no_radius="true"
       apply_with_radius="true"
       only_selected="false"
       hide_knots="false" /><inkscape:path-effect
       effect="fillet_chamfer"
       id="path-effect70"
       is_visible="true"
       lpeversion="1"
       nodesatellites_param="F,0,0,1,0,3.72401,0,1 @ F,0,0,1,0,3.72401,0,1 @ F,0,0,1,0,3.72401,0,1 @ F,0,0,1,0,3.72401,0,1 | F,0,0,1,0,3.72401,0,1 @ F,0,0,1,0,3.72401,0,1 @ F,0,0,1,0,3.72401,0,1 @ F,0,0,1,0,3.72401,0,1 | F,0,0,1,0,3.72401,0,1 @ F,0,0,1,0,3.72401,0,1 @ F,0,0,1,0,3.72401,0,1 @ F,0,0,1,0,3.72401,0,1 | F,0,0,1,0,3.72401,0,1 @ F,0,0,1,0,3.72401,0,1 @ F,0,0,1,0,3.72401,0,1 @ F,0,0,1,0,3.72401,0,1 | F,0,0,1,0,3.72401,0,1 @ F,0,0,1,0,0.73768716,0,1 @ F,0,0,1,0,0.73768716,0,1 @ F,0,0,1,0,3.72401,0,1 | F,0,0,1,0,0.98651466,0,1 @ F,0,0,1,0,0.73050047,0,1 @ F,0,1,1,0,0.98651466,0,1"
       radius="0"
       unit="px"
       method="auto"
       mode="F"
       chamfer_steps="1"
       flexible="false"
       use_knot_distance="true"
       apply_no_radius="true"
       apply_with_radius="true"
       only_selected="false"
       hide_knots="false" /><inkscape:path-effect
       effect="fillet_chamfer"
       id="path-effect64"
       is_visible="true"
       lpeversion="1"
       nodesatellites_param="F,0,0,1,0,2.800529,0,1 @ F,0,0,1,0,0,0,1 @ F,0,0,1,0,2.800529,0,1 @ F,0,0,1,0,2.800529,0,1 @ F,0,1,1,0,0,0,1 @ F,0,0,1,0,0.014909204,0,1 @ F,0,0,1,0,2.800529,0,1 @ F,0,0,1,0,2.800529,0,1 @ F,0,0,1,0,0.014909204,0,1 @ F,0,0,1,0,2.800529,0,1 @ F,0,0,1,0,2.800529,0,1 @ F,0,0,1,0,0.014909204,0,1 @ F,0,0,1,0,2.800529,0,1 @ F,0,0,1,0,2.800529,0,1 @ F,0,0,1,0,0.014909204,0,1 @ F,0,0,1,0,0,0,1 @ F,0,0,1,0,2.800529,0,1 @ F,0,0,1,0,2.800529,0,1 @ F,0,0,1,0,0,0,1 @ F,0,0,1,0,2.800529,0,1"
       radius="0"
       unit="px"
       method="auto"
       mode="F"
       chamfer_steps="1"
       flexible="false"
       use_knot_distance="true"
       apply_no_radius="true"
       apply_with_radius="true"
       only_selected="false"
       hide_knots="false" /><inkscape:path-effect
       effect="mirror_symmetry"
       start_point="102.03131,-0.36668812"
       end_point="102.03131,281.43263"
       center_point="102.03131,140.53297"
       id="path-effect62"
       is_visible="true"
       lpeversion="1.2"
       lpesatellites=""
       mode="vertical"
       discard_orig_path="false"
       fuse_paths="false"
       oposite_fuse="false"
       split_items="false"
       split_open="false"
       link_styles="false" /><inkscape:path-effect
       effect="fillet_chamfer"
       id="path-effect60"
       is_visible="true"
       lpeversion="1"
       nodesatellites_param="F,0,1,1,0,3.2308885,0,1 @ F,0,0,1,0,3.2308885,0,1 @ F,0,1,1,0,3.2308885,0,1"
       radius="0"
       unit="px"
       method="auto"
       mode="F"
       chamfer_steps="1"
       flexible="false"
       use_knot_distance="true"
       apply_no_radius="true"
       apply_with_radius="true"
       only_selected="false"
       hide_knots="false" /><inkscape:path-effect
       effect="mirror_symmetry"
       start_point="33.5933,135.46666"
       end_point="237.34003,135.46666"
       center_point="135.46666,135.46666"
       id="path-effect58"
       is_visible="true"
       lpeversion="1.2"
       lpesatellites=""
       mode="horizontal"
       discard_orig_path="false"
       fuse_paths="false"
       oposite_fuse="false"
       split_items="false"
       split_open="false"
       link_styles="false" /><inkscape:path-effect
       effect="fillet_chamfer"
       id="path-effect56"
       is_visible="true"
       lpeversion="1"
       nodesatellites_param="F,0,1,1,0,2.800523,0,1 @ F,0,1,1,0,2.800523,0,1 @ F,0,1,1,0,2.800523,0,1 @ F,0,0,1,0,2.800523,0,1"
       radius="0"
       unit="px"
       method="auto"
       mode="F"
       chamfer_steps="1"
       flexible="false"
       use_knot_distance="true"
       apply_no_radius="true"
       apply_with_radius="true"
       only_selected="false"
       hide_knots="false" /><inkscape:path-effect
       effect="fillet_chamfer"
       id="path-effect52"
       is_visible="true"
       lpeversion="1"
       nodesatellites_param="F,0,0,1,0,2.800529,0,1 @ F,0,0,1,0,0,0,1 @ F,0,0,1,0,2.800529,0,1 @ F,0,0,1,0,2.800529,0,1 @ F,0,1,1,0,0,0,1 @ F,0,0,1,0,0.014909204,0,1 @ F,0,0,1,0,2.800529,0,1 @ F,0,0,1,0,2.800529,0,1 @ F,0,0,1,0,0.014909204,0,1 @ F,0,0,1,0,2.800529,0,1 @ F,0,0,1,0,2.800529,0,1 @ F,0,0,1,0,0.014909204,0,1 @ F,0,0,1,0,2.800529,0,1 @ F,0,0,1,0,2.800529,0,1 @ F,0,0,1,0,0.014909204,0,1 @ F,0,0,1,0,0,0,1 @ F,0,0,1,0,2.800529,0,1 @ F,0,0,1,0,2.800529,0,1 @ F,0,0,1,0,0,0,1 @ F,0,0,1,0,2.800529,0,1"
       radius="0"
       unit="px"
       method="auto"
       mode="F"
       chamfer_steps="1"
       flexible="false"
       use_knot_distance="true"
       apply_no_radius="true"
       apply_with_radius="true"
       only_selected="false"
       hide_knots="false" /><inkscape:path-effect
       effect="mirror_symmetry"
       start_point="102.03131,-0.36668812"
       end_point="102.03131,281.43263"
       center_point="102.03131,140.53297"
       id="path-effect50"
       is_visible="true"
       lpeversion="1.2"
       lpesatellites=""
       mode="vertical"
       discard_orig_path="false"
       fuse_paths="false"
       oposite_fuse="false"
       split_items="false"
       split_open="false"
       link_styles="false" /><inkscape:path-effect
       effect="fillet_chamfer"
       id="path-effect48"
       is_visible="true"
       lpeversion="1"
       nodesatellites_param="F,0,1,1,0,3.2308885,0,1 @ F,0,0,1,0,3.2308885,0,1 @ F,0,1,1,0,3.2308885,0,1"
       radius="0"
       unit="px"
       method="auto"
       mode="F"
       chamfer_steps="1"
       flexible="false"
       use_knot_distance="true"
       apply_no_radius="true"
       apply_with_radius="true"
       only_selected="false"
       hide_knots="false" /><inkscape:path-effect
       effect="mirror_symmetry"
       start_point="33.5933,135.46666"
       end_point="237.34003,135.46666"
       center_point="135.46666,135.46666"
       id="path-effect46"
       is_visible="true"
       lpeversion="1.2"
       lpesatellites=""
       mode="horizontal"
       discard_orig_path="false"
       fuse_paths="false"
       oposite_fuse="false"
       split_items="false"
       split_open="false"
       link_styles="false" /><inkscape:path-effect
       effect="fillet_chamfer"
       id="path-effect44"
       is_visible="true"
       lpeversion="1"
       nodesatellites_param="F,0,1,1,0,2.800523,0,1 @ F,0,1,1,0,2.800523,0,1 @ F,0,1,1,0,2.800523,0,1 @ F,0,0,1,0,2.800523,0,1"
       radius="0"
       unit="px"
       method="auto"
       mode="F"
       chamfer_steps="1"
       flexible="false"
       use_knot_distance="true"
       apply_no_radius="true"
       apply_with_radius="true"
       only_selected="false"
       hide_knots="false" /><inkscape:path-effect
       effect="fillet_chamfer"
       id="path-effect40"
       is_visible="true"
       lpeversion="1"
       nodesatellites_param="F,0,0,1,0,2.800529,0,1 @ F,0,0,1,0,0,0,1 @ F,0,0,1,0,2.800529,0,1 @ F,0,0,1,0,2.800529,0,1 @ F,0,1,1,0,0,0,1 @ F,0,0,1,0,0.014909204,0,1 @ F,0,0,1,0,2.800529,0,1 @ F,0,0,1,0,2.800529,0,1 @ F,0,0,1,0,0.014909204,0,1 @ F,0,0,1,0,2.800529,0,1 @ F,0,0,1,0,2.800529,0,1 @ F,0,0,1,0,0.014909204,0,1 @ F,0,0,1,0,2.800529,0,1 @ F,0,0,1,0,2.800529,0,1 @ F,0,0,1,0,0.014909204,0,1 @ F,0,0,1,0,0,0,1 @ F,0,0,1,0,2.800529,0,1 @ F,0,0,1,0,2.800529,0,1 @ F,0,0,1,0,0,0,1 @ F,0,0,1,0,2.800529,0,1"
       radius="0"
       unit="px"
       method="auto"
       mode="F"
       chamfer_steps="1"
       flexible="false"
       use_knot_distance="true"
       apply_no_radius="true"
       apply_with_radius="true"
       only_selected="false"
       hide_knots="false" /><inkscape:path-effect
       effect="mirror_symmetry"
       start_point="102.03131,-0.36668812"
       end_point="102.03131,281.43263"
       center_point="102.03131,140.53297"
       id="path-effect38"
       is_visible="true"
       lpeversion="1.2"
       lpesatellites=""
       mode="vertical"
       discard_orig_path="false"
       fuse_paths="false"
       oposite_fuse="false"
       split_items="false"
       split_open="false"
       link_styles="false" /><inkscape:path-effect
       effect="fillet_chamfer"
       id="path-effect36"
       is_visible="true"
       lpeversion="1"
       nodesatellites_param="F,0,1,1,0,3.2308885,0,1 @ F,0,0,1,0,3.2308885,0,1 @ F,0,1,1,0,3.2308885,0,1"
       radius="0"
       unit="px"
       method="auto"
       mode="F"
       chamfer_steps="1"
       flexible="false"
       use_knot_distance="true"
       apply_no_radius="true"
       apply_with_radius="true"
       only_selected="false"
       hide_knots="false" /><inkscape:path-effect
       effect="mirror_symmetry"
       start_point="33.5933,135.46666"
       end_point="237.34003,135.46666"
       center_point="135.46666,135.46666"
       id="path-effect34"
       is_visible="true"
       lpeversion="1.2"
       lpesatellites=""
       mode="horizontal"
       discard_orig_path="false"
       fuse_paths="false"
       oposite_fuse="false"
       split_items="false"
       split_open="false"
       link_styles="false" /><inkscape:path-effect
       effect="fillet_chamfer"
       id="path-effect32"
       is_visible="true"
       lpeversion="1"
       nodesatellites_param="F,0,1,1,0,2.800523,0,1 @ F,0,1,1,0,2.800523,0,1 @ F,0,1,1,0,2.800523,0,1 @ F,0,0,1,0,2.800523,0,1"
       radius="0"
       unit="px"
       method="auto"
       mode="F"
       chamfer_steps="1"
       flexible="false"
       use_knot_distance="true"
       apply_no_radius="true"
       apply_with_radius="true"
       only_selected="false"
       hide_knots="false" /><inkscape:path-effect
       effect="fillet_chamfer"
       id="path-effect28"
       is_visible="true"
       lpeversion="1"
       nodesatellites_param="F,0,0,1,0,2.800529,0,1 @ F,0,0,1,0,0,0,1 @ F,0,0,1,0,2.800529,0,1 @ F,0,0,1,0,2.800529,0,1 @ F,0,1,1,0,0,0,1 @ F,0,0,1,0,0.014909204,0,1 @ F,0,0,1,0,2.800529,0,1 @ F,0,0,1,0,2.800529,0,1 @ F,0,0,1,0,0.014909204,0,1 @ F,0,0,1,0,2.800529,0,1 @ F,0,0,1,0,2.800529,0,1 @ F,0,0,1,0,0.014909204,0,1 @ F,0,0,1,0,2.800529,0,1 @ F,0,0,1,0,2.800529,0,1 @ F,0,0,1,0,0.014909204,0,1 @ F,0,0,1,0,0,0,1 @ F,0,0,1,0,2.800529,0,1 @ F,0,0,1,0,2.800529,0,1 @ F,0,0,1,0,0,0,1 @ F,0,0,1,0,2.800529,0,1"
       radius="0"
       unit="px"
       method="auto"
       mode="F"
       chamfer_steps="1"
       flexible="false"
       use_knot_distance="true"
       apply_no_radius="true"
       apply_with_radius="true"
       only_selected="false"
       hide_knots="false" /><inkscape:path-effect
       effect="fillet_chamfer"
       id="path-effect27"
       is_visible="true"
       lpeversion="1"
       nodesatellites_param=""
       radius="0"
       unit="px"
       method="auto"
       mode="F"
       chamfer_steps="1"
       flexible="false"
       use_knot_distance="true"
       apply_no_radius="true"
       apply_with_radius="true"
       only_selected="false"
       hide_knots="false" /><inkscape:path-effect
       effect="mirror_symmetry"
       start_point="102.03132,-0.36666457"
       end_point="102.03132,281.43263"
       center_point="102.03132,140.53298"
       id="path-effect23"
       is_visible="true"
       lpeversion="1.2"
       lpesatellites=""
       mode="vertical"
       discard_orig_path="false"
       fuse_paths="false"
       oposite_fuse="false"
       split_items="false"
       split_open="false"
       link_styles="false" /><inkscape:path-effect
       effect="fillet_chamfer"
       id="path-effect21"
       is_visible="true"
       lpeversion="1"
       nodesatellites_param="F,0,1,1,0,3.2308885,0,1 @ F,0,0,1,0,3.2308885,0,1 @ F,0,1,1,0,3.2308885,0,1"
       radius="0"
       unit="px"
       method="auto"
       mode="F"
       chamfer_steps="1"
       flexible="false"
       use_knot_distance="true"
       apply_no_radius="true"
       apply_with_radius="true"
       only_selected="false"
       hide_knots="false" /><inkscape:path-effect
       effect="mirror_symmetry"
       start_point="33.593317,135.46667"
       end_point="237.34003,135.46667"
       center_point="135.46667,135.46667"
       id="path-effect19"
       is_visible="true"
       lpeversion="1.2"
       lpesatellites=""
       mode="horizontal"
       discard_orig_path="false"
       fuse_paths="false"
       oposite_fuse="false"
       split_items="false"
       split_open="false"
       link_styles="false" /><inkscape:path-effect
       effect="fillet_chamfer"
       id="path-effect17"
       is_visible="true"
       lpeversion="1"
       nodesatellites_param="F,0,1,1,0,2.800523,0,1 @ F,0,1,1,0,2.800523,0,1 @ F,0,1,1,0,2.800523,0,1 @ F,0,0,1,0,2.800523,0,1"
       radius="0"
       unit="px"
       method="auto"
       mode="F"
       chamfer_steps="1"
       flexible="false"
       use_knot_distance="true"
       apply_no_radius="true"
       apply_with_radius="true"
       only_selected="false"
       hide_knots="false" /><inkscape:path-effect
       effect="fillet_chamfer"
       id="path-effect6"
       is_visible="true"
       lpeversion="1"
       nodesatellites_param="F,0,1,1,0,3.2308885,0,1 @ F,0,0,1,0,3.2308885,0,1 @ F,0,1,1,0,3.2308885,0,1"
       radius="0"
       unit="px"
       method="auto"
       mode="F"
       chamfer_steps="1"
       flexible="false"
       use_knot_distance="true"
       apply_no_radius="true"
       apply_with_radius="true"
       only_selected="false"
       hide_knots="false" /><inkscape:path-effect
       effect="fillet_chamfer"
       id="path-effect5"
       is_visible="true"
       lpeversion="1"
       nodesatellites_param="F,0,1,1,0,2.800523,0,1 @ F,0,1,1,0,2.800523,0,1 @ F,0,1,1,0,2.800523,0,1 @ F,0,0,1,0,2.800523,0,1"
       radius="0"
       unit="px"
       method="auto"
       mode="F"
       chamfer_steps="1"
       flexible="false"
       use_knot_distance="true"
       apply_no_radius="true"
       apply_with_radius="true"
       only_selected="false"
       hide_knots="false" /><inkscape:path-effect
       effect="mirror_symmetry"
       start_point="102.03131,-46.829122"
       end_point="102.03131,327.89507"
       center_point="102.03131,140.53298"
       id="path-effect4"
       is_visible="true"
       lpeversion="1.2"
       lpesatellites=""
       mode="vertical"
       discard_orig_path="false"
       fuse_paths="false"
       oposite_fuse="false"
       split_items="false"
       split_open="false"
       link_styles="false" /><inkscape:path-effect
       effect="mirror_symmetry"
       start_point="0,135.46666"
       end_point="270.93333,135.46666"
       center_point="135.46666,135.46666"
       id="path-effect3"
       is_visible="true"
       lpeversion="1.2"
       lpesatellites=""
       mode="horizontal"
       discard_orig_path="false"
       fuse_paths="false"
       oposite_fuse="false"
       split_items="false"
       split_open="false"
       link_styles="false" /><inkscape:path-effect
       effect="mirror_symmetry"
       start_point="102.03131,-46.829122"
       end_point="102.03131,327.89507"
       center_point="102.03131,140.53298"
       id="path-effect2"
       is_visible="true"
       lpeversion="1.2"
       lpesatellites=""
       mode="vertical"
       discard_orig_path="false"
       fuse_paths="false"
       oposite_fuse="false"
       split_items="false"
       split_open="false"
       link_styles="false" /><rect
       x="1082.0417"
       y="138.21703"
       width="2282.5554"
       height="658.74664"
       id="rect4" /><rect
       x="1291.3419"
       y="489.68317"
       width="1863.9553"
       height="510.31683"
       id="rect5" /></defs><g
     inkscape:groupmode="layer"
     id="layer1"
     inkscape:label="Layer 1"><rect
       style="fill:#212121;fill-opacity:1;stroke:none;stroke-width:3.96875;stroke-linecap:round;stroke-linejoin:round"
       id="rect3"
       width="1058.3333"
       height="264.58331"
       x="0"
       y="0"
       rx="15.580091" /><g
       id="g1"
       transform="matrix(0.88532284,0,0,0.88532284,2.1229011,15.170832)"><path
         style="-inkscape-font-specification:'Spartan Ultra-Bold';fill:#bbbbbb;stroke-width:29.8;stroke-linecap:square"
         d="m 1103.541,199.94184 q -3.6666,0 -6.9,-0.7 -3.2333,-0.66667 -5.9,-1.76667 -2.6333,-1.1 -4.6666,-2.33333 -2,-1.23333 -3.2334,-2.33334 l 6.4334,-10.8 q 1.3,0.96667 2.9333,2.03333 1.6667,1.06667 3.5667,1.96667 1.9,0.9 3.9666,1.46667 2.0667,0.56667 4.1667,0.56667 2,0 3.4333,-0.56667 1.4334,-0.56667 2.2334,-1.7 0.8,-1.13334 0.8,-2.83334 0,-1.56666 -0.7334,-2.7 -0.7,-1.16667 -2.1666,-2.16667 -1.4667,-1 -3.7334,-2.06666 -2.2333,-1.1 -5.3,-2.50001 -2.2666,-1.06666 -4.2333,-2.43333 -1.9667,-1.36667 -3.4333,-3.1 -1.4667,-1.73334 -2.2667,-3.83334 -0.8,-2.1 -0.8,-4.6 0,-3.23333 1.3,-6.2 1.3333,-2.96667 3.7667,-5.33334 2.4666,-2.36667 5.8666,-3.73333 3.4334,-1.40001 7.6,-1.40001 2.9,0 5.9667,0.70001 3.1,0.7 5.9,1.86666 2.8,1.16667 4.8333,2.63334 l -5.2,10.23334 q -1.6,-1.1 -3.5,-1.93334 -1.8666,-0.86666 -3.8333,-1.33333 -1.9667,-0.46667 -3.8667,-0.46667 -1.9666,0 -3.3666,0.6 -1.3667,0.56667 -2.1334,1.63334 -0.7333,1.03333 -0.7333,2.43333 0,1.03333 0.4333,1.8 0.4334,0.73334 1.3,1.33334 0.9,0.56666 2.2334,1.16666 1.3333,0.6 3.1333,1.33334 4.0667,1.76666 7.2667,3.46667 3.2,1.66666 5.3666,3.66666 2.2,2 3.3,4.60001 1.1334,2.56666 1.1334,6.06667 0,5.43333 -2.6,9.3 -2.5667,3.86667 -7.2667,5.93334 -4.7,2.03333 -11.0667,2.03333 z m 30.9,-1.06667 v -55.00002 h 12.8334 v 43.73335 h 18.7333 v 11.26667 z m 60.3333,0 v -43.70002 h -12.9 v -11.3 h 38.6667 v 11.3 h -12.9 v 43.70002 z m 27.4334,0 v -34.13335 h 12.1667 v 4.83334 q 2.0333,-2.8 4.8333,-4.33334 2.8,-1.56666 5.9,-1.56666 1.9,0 3.9667,0.6 2.0667,0.6 3.4333,1.56666 l -5.0666,10.23334 q -1.2,-0.83333 -2.8,-1.33333 -1.6,-0.53333 -2.9667,-0.53333 -1.8667,0 -3.5667,0.96666 -1.6666,0.96667 -2.7,2.53334 -1.0333,1.53333 -1.0333,3.33333 v 17.83334 z m 48.4001,1.06667 q -4.7,0 -8.5334,-2.33333 -3.8333,-2.36667 -6.1,-6.46667 -2.2667,-4.13334 -2.2667,-9.40001 0,-5.1 2.1667,-9.16667 2.1667,-4.1 5.9667,-6.5 3.8,-2.4 8.7667,-2.4 3.2333,0 6.1333,1.1 2.9333,1.1 4.9667,3.1 v -3.13334 h 12.1666 v 34.13335 h -12.1666 v -3.53333 q -2.4,2.26667 -5.2,3.43333 -2.7667,1.16667 -5.9,1.16667 z m 3.6666,-10.3 q 2.2667,0 4,-1 1.7334,-1.03334 2.7,-2.80001 0.9667,-1.76666 0.9667,-4.03333 0,-2.26667 -1,-4.03334 -0.9667,-1.76666 -2.7,-2.76666 -1.7333,-1.03334 -3.9667,-1.03334 -2.2,0 -3.9666,1.03334 -1.7334,1 -2.7667,2.76666 -1,1.76667 -1,4.03334 0,2.23333 1,4.03333 1,1.76667 2.7333,2.80001 1.7667,1 4,1 z m 30.8,9.23333 v -34.13335 h 12.1667 v 3.46667 q 2.2,-2.1 5.1667,-3.3 2.9666,-1.23333 6.2333,-1.23333 3.9333,0 6.9667,1.73333 3.0333,1.73333 4.7666,4.8 1.7667,3.03334 1.7667,6.96667 v 21.70001 h -12.1667 v -19.10001 q 0,-3.06666 -1.7,-4.83333 -1.7,-1.8 -4.6,-1.8 -1.9666,0 -3.4,0.8 -1.4333,0.8 -2.2333,2.23333 -0.8,1.4 -0.8,3.23334 v 19.46667 z m 57.2335,1.06667 q -4.3667,0 -7.8667,-1.13333 -3.4667,-1.13334 -5.9,-3.33334 l 4.9333,-8.3 q 2.3,1.86667 4.5334,2.86667 2.2667,0.96666 4.3333,0.96666 1,0 1.6667,-0.26666 0.6667,-0.26667 1,-0.8 0.3667,-0.53334 0.3667,-1.33334 0,-1.06666 -0.6667,-1.66666 -0.6333,-0.63334 -2.0667,-1.23334 -1.4,-0.6 -3.6666,-1.53333 -2.0667,-0.9 -3.9001,-2 -1.8333,-1.1 -3,-2.80001 -1.1333,-1.7 -1.1333,-4.33333 0,-3.33334 1.9,-5.86667 1.9,-2.56667 5.2334,-4 3.3666,-1.43334 7.7666,-1.43334 2.4334,0 5.3,0.63334 2.9,0.6 6.4667,1.86666 l -3.9333,7.96668 q -4.7334,-2.33334 -7.7334,-2.33334 -1.6,0 -2.5,0.6 -0.9,0.6 -0.9,1.5 0,0.96667 1.2,1.8 1.2334,0.8 2.9334,1.43334 1.7,0.63333 3.0666,1.13333 2.4,0.83333 4.3,1.96667 1.9,1.13333 3,3 1.1,1.83333 1.1,4.86667 0,3.8 -1.8666,6.43334 -1.8334,2.6 -5.3667,3.96666 -3.5333,1.36667 -8.6,1.36667 z m 24.5666,-1.06667 v -57.33336 h 12.1667 v 57.33336 z m 37.5334,1.06667 q -4.7,0 -8.5333,-2.33333 -3.8334,-2.36667 -6.1,-6.46667 -2.2667,-4.13334 -2.2667,-9.40001 0,-5.1 2.1667,-9.16667 2.1666,-4.1 5.9666,-6.5 3.8,-2.4 8.7667,-2.4 3.2333,0 6.1333,1.1 2.9334,1.1 4.9667,3.1 v -3.13334 h 12.1667 v 34.13335 h -12.1667 v -3.53333 q -2.4,2.26667 -5.2,3.43333 -2.7667,1.16667 -5.9,1.16667 z m 3.6667,-10.3 q 2.2666,0 4,-1 1.7333,-1.03334 2.7,-2.80001 0.9667,-1.76666 0.9667,-4.03333 0,-2.26667 -1,-4.03334 -0.9667,-1.76666 -2.7001,-2.76666 -1.7333,-1.03334 -3.9666,-1.03334 -2.2,0 -3.9667,1.03334 -1.7333,1 -2.7667,2.76666 -1,1.76667 -1,4.03334 0,2.23333 1,4.03333 1,1.76667 2.7334,2.80001 1.7666,1 4,1 z m 43.3,10.3 q -5.5333,0 -8.6333,-3.46667 -3.1,-3.5 -3.1,-9.76667 v -12.73334 h -4.9667 v -9.23334 h 4.9667 v -12.8 h 12.1666 v 12.8 h 7.1334 v 9.23334 h -7.1334 v 11.83334 q 0,1.6 0.6334,2.43334 0.6666,0.83333 1.9333,0.83333 1.4667,0 2.9,-1.06667 l 3.0333,9.76667 q -1.9333,1 -4.3,1.56667 -2.3666,0.6 -4.6333,0.6 z m 17.1333,-1.06667 v -34.13335 h 12.1667 v 34.13335 z m 6.0667,-41.33335 q -1.9333,0 -3.5667,-0.96667 -1.6333,-0.96666 -2.6,-2.56667 -0.9333,-1.63333 -0.9333,-3.6 0,-1.93333 0.9333,-3.53333 0.9667,-1.63334 2.6,-2.6 1.6334,-0.96667 3.5667,-0.96667 1.9667,0 3.5667,0.96667 1.6,0.96666 2.5666,2.56666 0.9667,1.6 0.9667,3.56667 0,1.96667 -0.9667,3.6 -0.9666,1.60001 -2.5666,2.56667 -1.6,0.96667 -3.5667,0.96667 z m 34.6,42.40002 q -5.7666,0 -10.4,-2.3 -4.6333,-2.33333 -7.3333,-6.4 -2.7,-4.1 -2.7,-9.43334 0,-5.33334 2.7,-9.40001 2.7,-4.1 7.3333,-6.4 4.6334,-2.33333 10.4,-2.33333 5.7667,0 10.4,2.33333 4.6334,2.3 7.3334,6.4 2.7,4.06667 2.7,9.40001 0,5.33334 -2.7,9.43334 -2.7,4.06667 -7.3334,6.4 -4.6333,2.3 -10.4,2.3 z m 0,-10.33334 q 2.1334,0 3.8667,-1 1.7667,-1 2.8,-2.73333 1.0333,-1.76667 1.0333,-4.06667 0,-2.3 -1.0333,-4.06667 -1.0333,-1.76667 -2.8,-2.73333 -1.7333,-1.00001 -3.8667,-1.00001 -2.1333,0 -3.9,1.00001 -1.7333,0.96666 -2.7666,2.73333 -1.0334,1.76667 -1.0334,4.06667 0,2.3 1.0334,4.06667 1.0333,1.73333 2.7666,2.73333 1.7667,1 3.9,1 z m 28.3667,9.26667 v -34.13335 h 12.1667 v 3.46667 q 2.2,-2.1 5.1666,-3.3 2.9667,-1.23333 6.2334,-1.23333 3.9333,0 6.9666,1.73333 3.0334,1.73333 4.7667,4.8 1.7667,3.03334 1.7667,6.96667 v 21.70001 h -12.1667 v -19.10001 q 0,-3.06666 -1.7,-4.83333 -1.7,-1.8 -4.6,-1.8 -1.9667,0 -3.4,0.8 -1.4333,0.8 -2.2333,2.23333 -0.8,1.4 -0.8,3.23334 v 19.46667 z"
         id="text3"
         transform="matrix(1.5977618,0,0,1.5977618,-1425.4524,-164.96982)"
         aria-label="SL Translation" /><circle
         style="display:inline;fill:#9f9f9f;fill-opacity:1;stroke-width:111.807"
         id="circle2"
         cx="135.46666"
         cy="135.46666"
         r="108.37332"
         transform="matrix(0.97656243,0,0,0.97656243,21.302326,0)" /><path
         id="path2"
         style="display:inline;fill:#bbbbbb;fill-opacity:1;stroke-width:97.6873"
         d="M 3.7238039,1.0839451e-7 C 1.667091,1.0839451e-7 4.3815e-7,1.667092 4.3815e-7,3.7238035 V 58.798995 c 0,2.056711 1.66709056185,3.72432 3.72380346185,3.72432 H 267.20953 c 2.0567,0 3.72381,-1.667609 3.72381,-3.72432 V 3.7238035 C 270.93334,1.667092 269.26623,1.0839451e-7 267.20953,1.0839451e-7 Z M 18.661393,109.5034 c -1.278988,0.0162 -2.441712,0.76031 -2.441712,1.79575 v 48.33503 c 0,1.38058 2.067063,2.24317 3.720704,1.55288 l 57.895173,-24.167 c 1.653641,-0.69029 1.653643,-2.4165 0,-3.10679 l -57.895173,-24.167 c -0.41341,-0.17257 -0.852662,-0.24827 -1.278992,-0.24287 z m 233.610537,0 c -0.42632,-0.005 -0.86558,0.0703 -1.27898,0.24287 l -57.89518,24.167 c -1.65364,0.69029 -1.65364,2.4165 0,3.10679 l 57.89518,24.167 c 1.65364,0.69029 3.72069,-0.1723 3.72069,-1.55288 v -48.33503 c 0,-1.03544 -1.16271,-1.77958 -2.44171,-1.79575 z M 3.7238039,208.41001 c -2.0567129,0 -3.72380346185,1.66761 -3.72380346185,3.72433 v 55.07519 c 0,2.05671 1.66709056185,3.72381 3.72380346185,3.72381 H 267.20953 c 2.0567,0 3.72381,-1.6671 3.72381,-3.72381 v -55.07519 c 0,-2.05672 -1.66711,-3.72433 -3.72381,-3.72433 z"
         transform="matrix(0.97656243,0,0,0.97656243,21.302326,0)" /><path
         id="path3"
         style="display:inline;fill:#237b2a;fill-opacity:1;stroke:none;stroke-width:6.32422;stroke-linecap:square;stroke-linejoin:miter;stroke-dasharray:none;stroke-opacity:1"
         d="m 241.18058,164.95657 -2.19448,2.19448 a 3.724015,3.724015 89.999962 0 0 0,5.26655 l 13.38622,13.38622 a 3.7240125,3.7240125 1.919836e-5 0 0 5.26654,0 l 2.19449,-2.19448 a 3.7240085,3.7240085 90.000027 0 0 0,-5.26654 l -13.38623,-13.38624 a 3.724004,3.724004 179.99997 0 0 -5.26654,1e-5 z m -9.60119,9.60119 -54.86549,54.86549 a 3.72401,3.72401 90 0 0 0,5.26654 l 13.38623,13.38623 a 3.7240094,3.7240094 180 0 0 5.26654,0 l 54.86548,-54.8655 a 3.7240106,3.7240106 89.999995 0 0 0,-5.26654 l -13.38622,-13.38622 a 3.72401,3.72401 0 0 0 -5.26654,0 z m -66.45589,86.95612 21.88162,-7.44382 a 2.3585248,2.3585248 103.10621 0 0 0.90814,-3.90059 l -13.29282,-13.29282 a 2.3585683,2.3585683 166.89426 0 0 -3.90065,0.90812 l -7.44411,21.88127 a 1.4563772,1.4563772 45.000475 0 0 1.84782,1.84784 z"
         inkscape:path-effect="#path-effect8"
         inkscape:original-d="m 243.81385,162.32329 -7.46102,7.46104 18.65276,18.65276 7.46103,-7.46102 z m -9.60119,9.6012 -60.13203,60.13203 18.65277,18.65277 60.13202,-60.13204 z m -71.88974,90.54211 28.27031,-9.61716 -18.65276,-18.65276 z"
         sodipodi:nodetypes="cccccccccccccc"
         transform="matrix(0.87898767,0,0,0.87898767,49.837642,23.877432)" /><path
         style="-inkscape-font-specification:'Ink Free';fill:#237b2a;stroke:#237b2a;stroke-width:3.96875;stroke-linecap:round;stroke-linejoin:round;stroke-dasharray:none;stroke-opacity:1"
         d="m 913.47002,223.97822 c -0.67346,0.0723 -1.20975,0.10158 -1.60864,0.0876 -0.40492,-0.0701 -0.71264,-0.29248 -0.92317,-0.66727 -0.59554,-0.78762 -1.45314,-3.22187 -2.57267,-7.30275 -1.11953,-4.08089 -2.27746,-8.78214 -3.47354,-14.10379 -3.11325,-16.29983 -5.05273,-24.57893 -5.81842,-24.83732 -0.47271,1.4133 -1.1526,4.06945 -2.03956,7.96844 -0.89298,3.84286 -1.85888,8.85738 -2.8977,15.04357 -1.15892,6.65325 -2.08279,11.26586 -2.7716,13.8378 -0.69484,2.51583 -1.37701,4.09356 -2.04637,4.73318 -0.40673,0.44108 -0.92585,0.89424 -1.55711,1.35944 -1.63588,1.05893 -2.59988,1.14957 -3.39179,-0.65759 -0.31495,-0.81776 -1.12841,-3.37028 -2.44051,-7.65757 -1.31813,-4.34342 -2.39154,-8.25894 -3.22023,-11.74659 l -0.88489,-3.48159 c -1.73783,-7.19371 -2.82028,-11.19342 -3.24749,-11.99912 -0.96383,1.06866 -1.74501,3.30989 -2.34353,6.72372 -0.60441,3.3577 -1.20157,8.10553 -1.79133,14.24348 -0.67825,4.78493 -1.29572,12.51547 -1.85216,23.1916 0.009,0.62348 -0.35075,1.22989 -1.08196,1.81937 -0.73146,0.58951 -1.40582,0.91741 -2.02321,0.98372 -0.89798,0.0965 -1.49653,-0.71923 -1.79567,-2.44703 -0.24369,-1.73375 -1.04005,-5.45194 -2.39034,-11.15445 -1.29434,-5.7085 -2.45727,-10.72145 -3.48865,-15.0389 -1.45495,-6.14542 -3.14216,-11.81172 -5.06186,-16.99888 -0.5737,-1.64154 -0.87254,-2.57457 -0.89665,-2.79907 -0.0904,-0.84188 0.2301,-1.55756 0.96156,-2.14707 0.78163,-0.65167 1.64947,-1.02874 2.60352,-1.1312 0.44905,-0.0482 1.11301,1.64039 1.99187,5.06585 0.87886,3.42547 1.8822,7.74593 3.01003,12.96136 l 0.55095,2.75104 c 0.42346,1.828 0.88398,3.73717 1.38159,5.72751 1.98873,8.47253 3.15665,13.79721 3.50401,15.974 0.42325,-6.63101 0.98378,-13.30516 1.68159,-20.02243 l 0.35983,-3.78561 c 0.59579,-6.08182 1.46058,-10.71647 2.59423,-13.90391 1.12775,-3.2436 2.84217,-4.98896 5.14324,-5.23611 0.72965,-0.0784 1.74836,1.74247 3.05624,5.4625 1.30186,3.66388 2.47668,7.99431 3.52433,12.99127 0.77865,3.54979 1.66053,7.00332 2.64563,10.36061 0.98509,3.35728 1.80247,5.68229 2.45227,6.97503 0.23431,-0.99028 0.68171,-3.16729 1.34232,-6.53102 0.71681,-3.36977 1.36747,-6.56212 1.95199,-9.57704 1.74332,-9.66816 3.76059,-18.37225 6.0518,-26.11225 0.43473,-1.23889 0.87746,-2.13803 1.32833,-2.6974 0.50103,-0.62154 1.42494,-1.00463 2.77197,-1.14931 0.72952,-0.0784 1.85884,3.03636 3.38795,9.34414 1.52911,6.30777 3.0263,13.64088 4.49183,21.99927 2.79331,11.73566 4.86462,18.07035 6.21392,19.00409 0.92028,0.6392 1.42556,1.37973 1.51598,2.2216 0.0422,0.39287 -0.24636,0.87805 -0.86556,1.4555 -0.56916,0.5153 -1.24666,0.81516 -2.03238,0.89955 z m 46.14622,-5.63761 c 0.0723,0.67349 -0.12386,1.48938 -0.5886,2.44765 -0.47089,0.90216 -0.98687,1.38337 -1.54819,1.44365 -0.95405,0.10247 -1.74699,-0.40847 -2.3787,-1.53283 -0.63171,-1.12436 -1.03196,-2.47228 -1.20074,-4.04378 -0.14468,-1.34699 -0.49409,-5.39705 -1.04951,-12.15004 l -0.25899,-3.20818 c -0.13865,-1.29088 -0.5749,-2.18075 -1.30863,-2.66966 -2.06747,4.53673 -4.02689,8.49413 -5.87814,11.8722 -1.85124,3.37806 -4.30992,6.65106 -7.37603,9.81897 -3.07214,3.1118 -6.4603,4.86662 -10.16447,5.26447 -1.79609,0.1929 -3.25947,-0.21764 -4.39027,-1.23162 -1.07461,-1.02002 -1.70843,-2.42803 -1.90132,-4.22401 -0.24113,-2.24498 0.44058,-5.41227 2.04513,-9.50188 1.59852,-4.14573 3.75521,-8.3798 6.47021,-12.70223 2.70897,-4.37854 5.4963,-8.02746 8.36199,-10.94677 1.89584,-1.90677 3.43094,-3.20709 4.6053,-3.90095 1.16846,-0.75 2.22978,-1.17623 3.18382,-1.2787 0.89798,-0.0964 1.85426,0.0847 2.86859,0.54349 1.01445,0.45875 1.91272,1.15708 2.69468,2.09499 0.78196,0.93792 1.24232,2.0523 1.38097,3.34316 0.18687,1.73987 -0.11239,3.44678 -0.89778,5.12076 l 1.38605,-0.57467 c 0.61739,-0.0663 1.06346,0.6522 1.33848,2.15551 0.15328,0.89188 0.40476,2.70997 0.7562,5.45405 0.40777,2.73804 0.73588,5.00206 0.98497,6.79201 0.25575,1.84601 0.50422,3.63603 0.74703,5.36988 0.24369,1.73376 0.44695,3.10285 0.61139,4.10708 0.099,0.38677 0.36838,0.78363 0.80921,1.19046 0.43506,0.35067 0.66759,0.66633 0.69773,0.94695 z m -9.86508,-22.86984 c 0.49261,-1.75608 0.63348,-3.6163 0.4225,-5.58066 -0.12659,-1.17861 -0.59992,-2.14966 -1.41986,-2.91318 -0.7699,-0.82566 -1.74427,-1.17519 -2.92284,-1.04861 -1.4031,0.1507 -3.0967,1.29774 -5.08056,3.44106 -2.29654,2.404 -4.65501,5.55267 -7.07542,9.44605 -2.42655,3.83727 -4.37891,7.59522 -5.85732,11.27387 -1.47841,3.67865 -2.10905,6.52822 -1.89204,8.5487 0.18084,1.68373 1.05698,2.44122 2.62854,2.27242 3.03072,-0.32551 5.82862,-1.76146 8.3937,-4.30785 2.5652,-2.5464 4.77644,-5.48056 6.63371,-8.80251 1.90731,-3.38409 3.96392,-7.49386 6.16959,-12.32929 z m 49.45997,41.86529 c -2.16619,2.56031 -4.49287,4.68368 -6.98004,6.37012 -2.42506,1.73654 -4.59158,2.70727 -6.4998,2.91223 -1.06644,0.11454 -1.85426,-0.0847 -2.36347,-0.59774 -0.5033,-0.45689 -0.79414,-1.05014 -0.8725,-1.77977 -0.0723,-0.67349 1.10607,-1.59487 3.53522,-2.76413 3.68395,-1.64465 6.99676,-4.10103 9.93855,-7.36914 2.28448,-2.51624 3.86236,-5.26884 4.73351,-8.25778 0.8711,-2.98894 1.147,-5.97072 0.8275,-8.94532 -0.3617,-3.36748 -0.9177,-6.43021 -1.66818,-9.18821 -0.69426,-2.76403 -1.7104,-6.14637 -3.04843,-10.14702 -1.47441,-4.21309 -2.57086,-7.81389 -3.28923,-10.80242 -0.67676,2.6842 -1.82953,5.95885 -3.45819,9.82396 -1.57246,3.85907 -3.55298,7.62004 -5.94143,11.2829 -2.2382,3.47639 -4.33915,6.11486 -6.30311,7.91542 -1.90789,1.79454 -3.84398,2.79729 -5.80827,3.00827 -1.68369,0.18083 -3.01582,-0.32897 -3.99638,-1.5294 -0.93051,-1.26259 -1.51928,-3.04444 -1.76643,-5.34556 -0.40991,-3.81647 0.28642,-8.43302 2.08911,-13.84966 1.80269,-5.41664 4.27296,-10.16696 7.41096,-14.25095 3.13799,-4.08398 6.41884,-6.30984 9.84243,-6.67755 1.17857,-0.12659 2.12188,0.19788 2.82969,0.97344 0.76387,0.76954 1.20917,1.74361 1.33576,2.92222 0.16276,1.51537 -0.0646,2.30621 -0.682,2.37252 -0.16834,0.0181 -0.41396,-0.15425 -0.73675,-0.51698 -0.27275,-0.42487 -0.59554,-0.78761 -0.9685,-1.08819 -0.37296,-0.30057 -0.75574,-0.42977 -1.1486,-0.38758 -2.86239,0.30744 -5.60918,2.22046 -8.24011,5.73904 -2.57486,3.51255 -4.61249,7.53513 -6.11261,12.0677 -1.45009,4.47043 -2.02751,8.0807 -1.73213,10.8308 0.16276,1.51536 0.4768,2.58869 0.94199,3.21999 0.52126,0.62527 1.23101,0.88968 2.12899,0.79323 1.34703,-0.14468 2.89026,-1.10523 4.6297,-2.88168 1.73943,-1.77645 3.74724,-4.49006 6.02342,-8.14086 2.03779,-3.22777 3.79981,-6.90851 5.28607,-11.04218 1.53629,-4.19582 2.61672,-8.14398 3.24117,-11.84446 0.0762,-0.34882 0.21428,-0.64751 0.4147,-0.89613 0.25648,-0.25462 0.55305,-0.40002 0.88984,-0.43619 0.50512,-0.0543 1.02833,0.0599 1.56962,0.34236 0.59145,0.22033 0.9052,0.49887 0.94137,0.83562 0.0241,0.22451 -0.004,0.48303 -0.087,0.77577 -0.0327,0.2306 -0.0732,0.37688 -0.12325,0.43903 0.7244,3.04465 2.16594,7.74383 4.32438,14.09756 1.5608,4.48768 2.7624,8.27588 3.6051,11.36461 0.8929,3.02657 1.499,6.02715 1.8185,9.00175 0.4702,4.37772 0.028,8.45599 -1.3259,12.23484 -1.3541,3.77885 -3.0891,6.91735 -5.20532,9.41552 z m 12.04107,-73.42213 c -0.9541,0.10247 -1.9785,-0.18491 -3.0731,-0.86215 -1.0386,-0.68327 -1.585,-1.27746 -1.6392,-1.78258 -0.066,-0.61737 0.151,-1.23681 0.652,-1.85835 0.5571,-0.62755 1.1443,-0.97448 1.7617,-1.04079 0.8721,0.1902 1.6218,0.56384 2.2493,1.12094 0.4973,0.40077 1.0657,0.93583 1.7052,1.60517 0.6397,0.66933 0.9685,1.08819 0.9866,1.25656 0.09,0.84188 -0.7904,1.36226 -2.6425,1.5612 z m 8.2583,53.10321 c -0.7918,0.0282 -1.5167,-1.17127 -2.1748,-3.59853 -0.6021,-2.43331 -1.4702,-7.08052 -2.6045,-13.94165 -0.7127,-4.52199 -1.3854,-8.93472 -2.0179,-13.23824 -0.6385,-4.35964 -1.1125,-7.71505 -1.4219,-10.06625 -0.066,-0.61737 -0.03,-1.07546 0.1079,-1.37412 0.1884,-0.36086 0.5632,-0.57143 1.1243,-0.6317 1.291,-0.13866 2.162,0.30712 2.6133,1.33732 0.4514,1.03019 0.8397,3.06065 1.1652,6.09139 l 0.9824,9.94314 c 0.6088,5.66858 1.2654,10.19658 1.9699,13.58401 0.018,0.16837 0.4636,1.93724 1.3364,5.30658 0.6461,2.31504 1.0113,3.86542 1.0957,4.65117 0.06,0.56124 -0.147,1.0093 -0.622,1.34418 -0.4129,0.38498 -0.931,0.58256 -1.5544,0.59274 z m 30.0485,-4.07896 c -2.5817,0.27729 -5.1374,0.26793 -7.6673,-0.0281 -2.4736,-0.30204 -4.5164,-0.82068 -6.1282,-1.55591 -1.6178,-0.79135 -2.481,-1.69216 -2.5895,-2.7024 -0.1447,-1.34699 0.2197,-2.97574 1.0932,-4.88627 0.8676,-1.96666 2.296,-4.78836 4.2855,-8.46514 l 2.182,-3.4704 c 1.5541,-3.02545 1.9079,-5.22924 2.6288,-8.03172 0.7711,-2.86465 1.1053,-4.77403 1.0028,-5.72814 -0.048,-0.449 -0.2688,-0.6524 -0.6617,-0.6102 -0.6173,0.0663 -1.5382,0.47747 -2.7629,1.2335 -1.2245,0.75601 -2.0493,1.27038 -2.4741,1.5431 -3.2487,1.99532 -6.6131,3.17986 -10.0927,3.55359 -0.7297,0.0784 -1.1216,-0.13501 -1.1759,-0.64013 -0.042,-0.39287 0.7234,-0.92927 2.2967,-1.60921 2.1667,-0.97074 4.9655,-2.66226 8.3966,-5.07457 3.9061,-2.74719 6.6449,-4.20518 8.2164,-4.37397 0.898,-0.0965 1.6206,0.0247 2.1679,0.36326 0.5473,0.33862 0.8541,0.81662 0.9205,1.43399 0.1507,1.40311 -1.6441,7.10626 -5.1534,17.24796 -0.6686,1.62442 -1.1296,2.23298 -1.7868,3.76505 l -1.4605,3.05224 c -1.3063,2.63828 -2.2959,4.78836 -2.969,6.45027 -0.6732,1.66192 -0.9705,2.85768 -0.8921,3.5873 0.078,0.72962 1.5167,1.17124 4.3151,1.32485 2.7923,0.0975 5.5355,0.002 8.2294,-0.28777 3.8727,-0.41594 7.3171,-1.382 10.3335,-2.89818 3.0164,-1.5162 5.4173,-3.47725 7.2027,-5.88311 0.2263,-0.53526 0.3954,-1.6037 0.5072,-3.20532 0,-0.51123 0.038,-0.96921 0.1079,-1.37412 0.064,-0.46107 0.2084,-0.70365 0.4328,-0.72775 0.3368,-0.0362 0.6065,0.36064 0.8092,1.19046 0.2527,0.76767 0.4455,1.76886 0.5781,3.00361 0.1507,1.40311 -0.6847,3.13922 -2.5063,5.20834 -1.8276,2.01301 -4.3247,3.87082 -7.4915,5.57348 -3.1165,1.64048 -6.4146,2.6476 -9.8944,3.02135 z m 78.1796,-7.88596 c -1.0102,0.10851 -1.5696,-0.34236 -1.6781,-1.3526 -1.2176,-11.33716 -2.5138,-19.96923 -3.8885,-25.89619 -1.3806,-5.98308 -2.969,-8.87818 -4.7649,-8.68528 -3.0307,0.32551 -6.3283,11.38121 -9.8926,33.1671 l 0.01,0.0842 c 0.072,0.67349 -0.089,1.28692 -0.4837,1.84027 -0.4007,0.49722 -0.9659,0.78502 -1.6955,0.86338 -1.0103,0.10851 -1.5697,-0.34236 -1.6782,-1.3526 -0.2411,-2.24498 -0.5024,-5.73678 -0.7844,-10.47534 -0.3421,-5.29983 -0.6759,-9.4651 -1.0014,-12.49584 -0.4521,-4.20934 -0.9119,-7.16888 -1.3795,-8.87859 -0.4173,-1.77188 -1.0469,-2.61261 -1.8888,-2.52218 -1.9083,0.20495 -3.945,3.97196 -6.1099,11.30099 -2.171,7.2729 -4.3467,15.82368 -6.527,25.65233 l -0.5226,2.27023 c -0.1642,0.58537 -0.4497,1.0986 -0.8565,1.53969 -0.3506,0.43506 -0.7786,0.67974 -1.2837,0.73399 -0.6735,0.0723 -1.1285,0.0645 -1.3651,-0.0237 -0.2365,-0.0882 -0.413,-0.40981 -0.5294,-0.96503 -0.576,-2.71997 -1.1954,-6.37201 -1.858,-10.95615 -0.239,-1.16654 -0.5591,-3.0908 -0.9607,-5.77272 -1.5801,-9.42476 -2.7724,-15.76871 -3.577,-19.03185 -0.8106,-3.31926 -1.237,-5.17532 -1.2792,-5.56819 -0.048,-0.44899 0.119,-1.00628 0.5016,-1.67187 0.3826,-0.66559 0.7705,-1.0195 1.1634,-1.0617 0.8979,-0.0964 1.6969,0.47062 2.3967,1.70122 0.3471,0.58722 0.9209,3.02354 1.7219,7.30897 0.8009,4.28542 1.6572,9.61518 2.5688,15.98928 l 1.8045,12.83536 c 2.062,-9.87271 4.3327,-18.85949 6.8123,-26.96034 2.4734,-8.15697 5.0852,-12.38315 7.8353,-12.67852 1.8522,-0.19894 3.2597,1.01243 4.2225,3.63407 0.9628,2.62164 1.7185,6.48612 2.2671,11.59346 0.2893,2.69398 0.6497,6.57254 1.0793,11.63588 l 0.3313,3.88168 c 1.4391,-8.27296 2.9888,-15.25205 4.6491,-20.93726 1.7163,-5.69122 3.725,-8.66042 6.0261,-8.90757 5.7809,-0.62089 10.0457,11.86507 12.7945,37.45788 0.072,0.67349 -0.092,1.25886 -0.4926,1.75606 -0.3948,0.55335 -0.957,0.86921 -1.6866,0.94757 z m 21.9485,-3.37928 c -3.7603,0.40389 -6.65,-0.33602 -8.669,-2.21973 -2.019,-1.88372 -3.1943,-4.369 -3.5258,-7.45585 -0.2894,-2.69398 -0.171,-6.08464 0.3551,-10.17195 0.5822,-4.09335 1.6026,-7.80796 3.0609,-11.14384 0.088,-0.23657 0.4498,-1.09859 1.0848,-2.58609 0.6852,-1.54967 1.4937,-2.74356 2.4256,-3.58167 0.9258,-0.89426 1.9499,-1.40166 3.0724,-1.52222 0.5052,-0.0543 0.9693,0.0378 1.3923,0.27625 0.473,0.17628 0.7307,0.46086 0.7729,0.85373 0.012,0.11226 -0.1261,0.41095 -0.4147,0.89612 -0.2384,0.42301 -0.4298,0.75581 -0.574,0.99839 -1.6611,2.50605 -2.9605,4.94488 -3.8979,7.31645 -1.264,3.03114 -2.1944,5.99804 -2.7909,8.90073 -0.5405,2.89665 -0.6329,6.00064 -0.2772,9.312 0.4762,4.43383 3.4082,6.36142 8.7962,5.78272 2.5256,-0.27127 4.7764,-1.25105 6.7524,-2.93936 2.0321,-1.69432 3.5821,-3.64912 4.65,-5.86439 1.0618,-2.27138 1.4992,-4.27699 1.3124,-6.01685 -0.211,-1.96436 -1.0403,-3.60684 -2.4879,-4.92744 -1.4477,-1.32058 -3.3814,-2.67413 -5.8011,-4.06063 -1.5738,-0.90962 -2.7337,-1.66501 -3.4794,-2.26618 -0.7458,-0.60116 -1.1429,-1.12624 -1.1911,-1.57523 -0.072,-0.67349 0.3475,-1.25793 1.2594,-1.75328 0.9059,-0.55146 2.0042,-0.89652 3.2951,-1.03516 0.7296,-0.0784 1.2127,-0.0736 1.4493,0.0146 0.2305,0.0321 0.3578,0.16031 0.3819,0.38478 0.012,0.11227 -0.079,0.32075 -0.2734,0.62546 -0.1442,0.24258 -0.2073,0.44807 -0.1892,0.61644 0.018,0.16837 0.6395,0.66935 1.8645,1.50289 2.4439,1.61099 4.5261,3.28922 6.2464,5.0347 1.7203,1.74548 2.7191,3.90908 2.9964,6.49082 0.2351,2.18885 -0.3075,4.80187 -1.6277,7.83904 -1.3202,3.03717 -3.356,5.75379 -6.1075,8.14989 -2.7577,2.33998 -6.0447,3.71492 -9.8612,4.12482 z"
         id="text4"
         aria-label="Magizmo"
         sodipodi:nodetypes="sccscccccccccccccccssccccscsscccccccsccsccccsssccscssccssscccscscsccccsssscccccccccccscsccssssccccscsccssccccccscsssscsscssccscssccccscsccccsscscscccsssccccccssccccscccsccsccccssscssccssscccsscsscccscsccsscscscscsscscsccccssccccssscscccssscccsscccsssccccscsccccssccsscsscscscscssscs" /></g></g></svg>
